<!DOCTYPE html>
<html>
<head>
<title>FYC</title>
<center><h1>FYC://Rick and Morty Season 01</h1></center>
<!--Link to torrent = |    |-->
<style>

/* Styling for the button */
.button {
background-color: transparent;
border: none;
color: #f1f1f1;
text-align: left;
font-size: 16px;
font-weight: bold;
font-family: 'Ubuntu', sans-serif;
cursor: pointer; 
width: 100%;
height: 50px;
margin-bottom: 5px;
}

/* Styling for the button when hovered */
.button:hover {
background-color: rgba(255, 255, 255, 0.1);
}

/* Styling for the button text in dark mode */
.button {
color: #f1f1f1;
}
</style>
</head>
<body>
<!-- Sidebar -->
<div class="sidebar">




<!-- Home -->
<button class="button" onclick="window.location.href='index.html'">Home</button>


<!-- Magnet -->
<button class="button" onclick="window.location.href='magnet:?xt=urn:btih:E55C65703CCD3D3FC695D15F60186E603BD17E9A&dn=Rick+and+Morty+%282013%29+S01+%281080p+x265+HEVC+10bit+BluRay+TrueHD+5.1%29+%5BPROF%21%5D&tr=udp%3A%2F%2Ftracker.opentrackr.org%3A1337%2Fannounce&tr=udp%3A%2F%2Ftracker.coppersurfer.tk%3A6969%2Fannounce&tr=udp%3A%2F%2Ftracker.torrent.eu.org%3A451%2Fannounce&tr=udp%3A%2F%2Ftracker.tiny-vps.com%3A6969%2Fannounce&tr=udp%3A%2F%2Fopen.stealth.si%3A80%2Fannounce&tr=udp%3A%2F%2Ftracker.internetwarriors.net%3A1337%2Fannounce&tr=udp%3A%2F%2Ftracker.opentrackr.org%3A1337%2Fannounce&tr=http%3A%2F%2Ftracker.openbittorrent.com%3A80%2Fannounce&tr=udp%3A%2F%2Fopentracker.i2p.rocks%3A6969%2Fannounce&tr=udp%3A%2F%2Ftracker.internetwarriors.net%3A1337%2Fannounce&tr=udp%3A%2F%2Ftracker.leechers-paradise.org%3A6969%2Fannounce&tr=udp%3A%2F%2Fcoppersurfer.tk%3A6969%2Fannounce&tr=udp%3A%2F%2Ftracker.zer0day.to%3A1337%2Fannounce'">Magnet</button>


<!-- Torrent -->
<button class="button" onclick="window.location.href='http://itorrents.org/torrent/E55C65703CCD3D3FC695D15F60186E603BD17E9A.torrent'">Torrent</button>

</div>

<!-- Content -->
<div style="margin-left: 20%;">
<link rel="shortcut icon" href="FYC Rewrite.ico" />
<style>
body {
background-image: url('With\ Credit\ Protogen.png');
background-repeat: no-repeat;
background-attachment: fixed;
background-size: cover;
}

/* Hide the photos by default */
/* DO NOT EDIT THE CODE IT WILL STOP WORKING */
.photo {
display: none;
}
</style>
</head>
</div>

<center><h1>Descption:</h1></center>
<!--Text Start-->
<p><h2>
<center>
General

Format                                   : Matroska
Format version                           : Version 4
File size                                : 1.05 GiB
Duration                                 : 22 min 1 s
Overall bit rate mode                    : Variable
Overall bit rate                         : 6 825 kb/s
Movie name                               : Rick and Morty Season 1
Encoded date                             : UTC 2021-06-21 10:14:18
Writing application                      : mkvmerge v53.0.0 ('Fool's Gold') 64-bit
Writing library                          : libebml v1.4.1 + libmatroska v1.6.2
Cover                                    : Yes
Attachments                              : cover.jpg

Video
ID                                       : 1
Format                                   : HEVC
Format/Info                              : High Efficiency Video Coding
Format profile                           : Main 10@L4@Main
Codec ID                                 : V_MPEGH/ISO/HEVC
Duration                                 : 22 min 1 s
Bit rate                                 : 4 341 kb/s
Width                                    : 1 920 pixels
Height                                   : 1 080 pixels
Display aspect ratio                     : 16:9
Frame rate mode                          : Constant
Frame rate                               : 23.976 (24000/1001) FPS
Color space                              : YUV
Chroma subsampling                       : 4:2:0
Bit depth                                : 10 bits
Bits/(Pixel*Frame)                       : 0.087
Stream size                              : 684 MiB (64%)
Writing library                          : x265 3.5_RC1+2+23-bd060601e:[Windows][GCC 10.2.0][64 bit] 10bit
Encoding settings                        : cpuid=1111039 / frame-threads=4 / numa-pools=24 / wpp / no-pmode / no-pme / no-psnr / no-ssim / log-level=2 / input-csp=1 / input-res=1920x1080 / interlace=0 / total-frames=31683 / level-idc=0 / high-tier=1 / uhd-bd=0 / ref=5 / no-allow-non-conformance / no-repeat-headers / annexb / no-aud / no-hrd / info / hash=0 / no-temporal-layers / open-gop / min-keyint=23 / keyint=250 / gop-lookahead=0 / bframes=8 / b-adapt=2 / b-pyramid / bframe-bias=0 / rc-lookahead=60 / lookahead-slices=1 / scenecut=40 / hist-scenecut=0 / radl=0 / no-splice / no-intra-refresh / ctu=64 / min-cu-size=8 / rect / amp / max-tu-size=32 / tu-inter-depth=4 / tu-intra-depth=4 / limit-tu=0 / rdoq-level=2 / dynamic-rd=0.00 / no-ssim-rd / signhide / tskip / nr-intra=0 / nr-inter=0 / no-constrained-intra / strong-intra-smoothing / max-merge=5 / limit-refs=0 / no-limit-modes / me=3 / subme=5 / merange=92 / temporal-mvp / no-frame-dup / no-hme / weightp / weightb / no-analyze-src-pics / deblock=0:0 / sao / no-sao-non-deblock / rd=6 / selective-sao=4 / no-early-skip / no-rskip / no-fast-intra / no-tskip-fast / no-cu-lossless / b-intra / no-splitrd-skip / rdpenalty=0 / psy-rd=2.00 / psy-rdoq=1.00 / no-rd-refine / no-lossless / cbqpoffs=0 / crqpoffs=0 / rc=crf / crf=18.0 / qcomp=0.60 / qpstep=4 / stats-write=0 / stats-read=0 / ipratio=1.40 / pbratio=1.30 / aq-mode=3 / aq-strength=1.00 / cutree / zone-count=0 / no-strict-cbr / qg-size=32 / no-rc-grain / qpmax=69 / qpmin=0 / no-const-vbv / sar=0 / overscan=0 / videoformat=5 / range=0 / colorprim=2 / transfer=2 / colormatrix=2 / chromaloc=0 / display-window=0 / cll=0,0 / min-luma=0 / max-luma=1023 / log2-max-poc-lsb=8 / vui-timing-info / vui-hrd-info / slices=1 / no-opt-qp-pps / no-opt-ref-list-length-pps / no-multi-pass-opt-rps / scenecut-bias=0.05 / hist-threshold=0.03 / no-opt-cu-delta-qp / no-aq-motion / no-hdr10 / no-hdr10-opt / no-dhdr10-opt / no-idr-recovery-sei / analysis-reuse-level=0 / analysis-save-reuse-level=0 / analysis-load-reuse-level=0 / scale-factor=0 / refine-intra=0 / refine-inter=0 / refine-mv=1 / refine-ctu-distortion=0 / no-limit-sao / ctu-info=0 / no-lowpass-dct / refine-analysis-type=0 / copy-pic=1 / max-ausize-factor=1.0 / no-dynamic-refine / no-single-sei / no-hevc-aq / no-svt / no-field / qp-adaptation-range=1.00 / scenecut-aware-qp=0conformance-window-offsets / right=0 / bottom=0 / decoder-max-rate=0 / no-vbv-live-multi-pass
Default                                  : Yes
Forced                                   : No

Audio #1
ID                                       : 2
Format                                   : MLP FBA
Format/Info                              : Meridian Lossless Packing FBA
Commercial name                          : Dolby TrueHD
Codec ID                                 : A_TRUEHD
Duration                                 : 22 min 1 s
Bit rate mode                            : Variable
Bit rate                                 : 2 190 kb/s
Maximum bit rate                         : 3 207 kb/s
Channel(s)                               : 6 channels
Channel layout                           : L R C LFE Ls Rs
Sampling rate                            : 48.0 kHz
Frame rate                               : 1 200.000 FPS (40 SPF)
Compression mode                         : Lossless
Stream size                              : 345 MiB (32%)
Language                                 : English
Default                                  : Yes
Forced                                   : No

Audio #2
ID                                       : 3
Format                                   : AC-3
Format/Info                              : Audio Coding 3
Commercial name                          : Dolby Digital
Codec ID                                 : A_AC3
Duration                                 : 22 min 1 s
Bit rate mode                            : Constant
Bit rate                                 : 192 kb/s
Channel(s)                               : 2 channels
Channel layout                           : L R
Sampling rate                            : 48.0 kHz
Frame rate                               : 31.250 FPS (1536 SPF)
Compression mode                         : Lossy
Stream size                              : 30.2 MiB (3%)
Title                                    : Commentary Crew
Language                                 : English
Service kind                             : Complete Main
Default                                  : No
Forced                                   : No

Text
ID                                       : 4
Format                                   : PGS
Muxing mode                              : zlib
Codec ID                                 : S_HDMV/PGS
Codec ID/Info                            : Picture based subtitle format used on BDs/HD-DVDs
Duration                                 : 21 min 55 s
Bit rate                                 : 79.2 kb/s
Count of elements                        : 1438
Stream size                              : 12.4 MiB (1%)
Title                                    : English
Language                                 : English
Default                                  : No
Forced                                   : No

Menu
00:00:00.000                             : en:Chapter 01
00:02:07.961                             : en:Chapter 02
00:02:39.826                             : en:Chapter 03
00:08:35.348                             : en:Chapter 04
00:21:35.294                             : en:Chapter 05

Source:

Remux 30 GB

Coming Soon:

There's Something About Mary
Avengers: Endgame 4k
Watchmen DC
Watchmen UC 4k
Before the Devil Knows You're Dead
Beverly Hills Ninja
Big Daddy
Billy Madison
Batman 4k
Centurion
There Will Be Blood
The Wolf of Wall Street
The Waterboy
The Untouchables
Batman Returns 4k
Rick and Morty S02
Arrested Development S03
Mobile Suit Gundam Unicorn 
</center>
</h2></p>
<!--Text End-->

<!--Notes-->
<center><h1>Notes:</h1></center>
<p><h2>
<center>
There is no note for this torrent
</center>
</h2></p>

<!-- Import the Ubuntu Bold font -->
<link rel="stylesheet" href="https://fonts.googleapis.com/css2?family=Ubuntu:wght@700&display=swap">
</body>
</html>
